<?xml version="1.0" standalone="no"?><svg xmlns="http://www.w3.org/2000/svg" viewBox="0 0 1440 320"><path fill="#f3f4f5" fill-opacity="1" d="M0,256L30,229.3C60,203,120,149,180,149.3C240,149,300,203,360,192C420,181,480,107,540,101.3C600,96,660,160,720,176C780,192,840,160,900,138.7C960,117,1020,107,1080,85.3C1140,64,1200,32,1260,48C1320,64,1380,128,1410,160L1440,192L1440,0L1410,0C1380,0,1320,0,1260,0C1200,0,1140,0,1080,0C1020,0,960,0,900,0C840,0,780,0,720,0C660,0,600,0,540,0C480,0,420,0,360,0C300,0,240,0,180,0C120,0,60,0,30,0L0,0Z"></path></svg>